<?xml version="1.0" standalone="no"?>
<!DOCTYPE svg PUBLIC "-//W3C//DTD SVG 20010904//EN"
 "http://www.w3.org/TR/2001/REC-SVG-20010904/DTD/svg10.dtd">
<svg version="1.0" xmlns="http://www.w3.org/2000/svg"
 width="225.000000pt" height="225.000000pt" viewBox="0 0 225.000000 225.000000"
 preserveAspectRatio="xMidYMid meet">
<metadata>
Created by potrace 1.10, written by Peter Selinger 2001-2011
</metadata>
<g transform="translate(0.000000,225.000000) scale(0.100000,-0.100000)"
fill="#000000" stroke="none">
<path d="M980 2238 c-25 -6 -211 -54 -414 -108 -314 -84 -373 -103 -397 -126
-61 -59 -65 -33 106 -680 96 -363 163 -599 175 -614 11 -14 29 -44 40 -67 30
-60 607 -621 651 -633 72 -21 76 -18 536 442 479 479 472 469 435 551 -13 28
-81 102 -199 220 l-180 178 34 122 c18 67 33 133 33 147 0 31 -32 84 -62 104
-13 8 -133 45 -268 82 -135 36 -246 68 -248 69 -2 2 -17 54 -34 116 -16 63
-37 126 -44 141 -27 52 -86 72 -164 56z m94 -61 c13 -10 60 -172 172 -592 85
-318 154 -588 154 -600 0 -12 -8 -29 -18 -39 -20 -17 -787 -226 -833 -226 -14
0 -33 8 -42 18 -13 14 -279 976 -324 1168 -3 13 4 31 19 47 20 24 72 40 413
131 215 58 402 105 416 105 14 1 33 -5 43 -12z m521 -419 c101 -28 122 -37
134 -60 14 -25 6 -59 -138 -595 -85 -312 -158 -578 -162 -591 -20 -53 -32 -52
-411 52 -194 53 -361 96 -371 96 -9 0 -17 5 -17 10 0 6 8 10 18 10 34 0 720
188 749 205 38 22 63 64 63 104 0 17 -49 218 -110 445 -60 228 -110 416 -110
418 0 3 53 -10 118 -28 64 -18 171 -48 237 -66z m303 -610 c98 -100 172 -184
172 -195 0 -11 -174 -192 -438 -456 -335 -335 -443 -437 -462 -437 -18 0 -92
67 -300 272 -153 150 -278 277 -279 282 0 4 7 5 16 1 10 -4 183 -52 384 -107
401 -110 417 -112 468 -60 23 23 44 92 141 455 63 235 117 426 120 425 3 -2
83 -82 178 -180z m-1291 -485 c2 -6 -8 -20 -23 -29 -26 -18 -27 -17 -45 5 -11
13 -19 27 -19 33 0 13 83 5 87 -9z"/>
</g>
</svg>
